<svg width="144" height="144" viewBox="0 0 144 144" fill="none" xmlns="http://www.w3.org/2000/svg">
<path d="M121.886 128.937L63.815 128.958C59.482 128.958 55.937 125.413 55.937 121.08L55.931 119.004M55.936 78.536V19.233C55.936 14.9 59.481 11.355 63.814 11.355H132.825C137.158 11.355 140.703 14.9 140.703 19.233V121.08C140.703 125.413 137.158 128.958 132.825 128.958H129.473" stroke="#589574" stroke-miterlimit="10" stroke-linecap="round" stroke-linejoin="round"/>
<path opacity="0.3" d="M55.936 24.723V19.233C55.936 14.9 59.481 11.355 63.814 11.355H132.825C137.158 11.355 140.703 14.9 140.703 19.233V24.723H55.936Z" fill="#66EE78"/>
<path d="M65.36 39.555H127.36M65.36 65.555H108.36M65.36 53.555H114.36M121.887 74.349H129.476M121.887 125.234H129.476M121.887 119.878H129.476M55.936 24.723V19.233C55.936 14.9 59.481 11.355 63.814 11.355H132.825C137.158 11.355 140.703 14.9 140.703 19.233V24.723H55.936ZM129.476 133.715H121.887V73.01L125.682 65.589L129.476 73.01V133.715Z" stroke="#589574" stroke-miterlimit="10" stroke-linecap="round" stroke-linejoin="round"/>
<path opacity="0.3" d="M121.887 119.878H129.475V125.234H121.887V119.878Z" fill="#66EE78"/>
<path d="M121.887 74.349H129.476M121.887 125.234H129.476M121.887 119.878H129.476M129.476 133.715H121.887V73.01L125.682 65.589L129.476 73.01V133.715Z" stroke="#589574" stroke-miterlimit="10" stroke-linecap="round" stroke-linejoin="round"/>
<path opacity="0.3" d="M129.476 74.349H121.887V73.01L125.682 65.589L129.476 73.01V74.349Z" fill="#66EE78"/>
<path d="M121.887 74.349H129.476M121.887 125.234H129.476M121.887 119.878H129.476" stroke="#589574" stroke-miterlimit="10" stroke-linecap="round" stroke-linejoin="round"/>
<path d="M39.458 54.136V61.561M43.17 57.849H35.746" stroke="#589574" stroke-miterlimit="10" stroke-linecap="round" stroke-linejoin="round"/>
<path d="M27.709 23.785V36.187M33.91 29.986H21.508" stroke="#589574" stroke-miterlimit="10" stroke-linecap="round" stroke-linejoin="round"/>
<path d="M4.54602 78.541H78.191V119.003H4.54602V78.541Z" stroke="#589574" stroke-miterlimit="10" stroke-linecap="round" stroke-linejoin="round"/>
<path opacity="0.3" d="M12.253 87.33H31.306V110.13H12.253V87.33Z" fill="#66EE78"/>
<path d="M12.253 87.33H31.306V110.13H12.253V87.33Z" stroke="#589574" stroke-miterlimit="10" stroke-linecap="round" stroke-linejoin="round"/>
<path d="M40.36 88.5551H71.36M40.36 96.5551H61.36" stroke="#589574" stroke-miterlimit="10" stroke-linecap="round" stroke-linejoin="round"/>
<path d="M42.769 109.028C44.0155 109.028 45.026 108.018 45.026 106.771C45.026 105.525 44.0155 104.514 42.769 104.514C41.5225 104.514 40.512 105.525 40.512 106.771C40.512 108.018 41.5225 109.028 42.769 109.028Z" stroke="#589574" stroke-miterlimit="10" stroke-linecap="round" stroke-linejoin="round"/>
<path d="M53.045 109.028C54.2915 109.028 55.302 108.018 55.302 106.771C55.302 105.525 54.2915 104.514 53.045 104.514C51.7985 104.514 50.788 105.525 50.788 106.771C50.788 108.018 51.7985 109.028 53.045 109.028Z" stroke="#589574" stroke-miterlimit="10" stroke-linecap="round" stroke-linejoin="round"/>
<path d="M63.321 109.028C64.5675 109.028 65.578 108.018 65.578 106.771C65.578 105.525 64.5675 104.514 63.321 104.514C62.0745 104.514 61.064 105.525 61.064 106.771C61.064 108.018 62.0745 109.028 63.321 109.028Z" stroke="#589574" stroke-miterlimit="10" stroke-linecap="round" stroke-linejoin="round"/>
</svg>
