<svg width="144" height="144" viewBox="0 0 144 144" fill="none" xmlns="http://www.w3.org/2000/svg">
<path opacity="0.3" d="M46.961 104.861H67.959V109.864H46.961V104.861Z" fill="#66EE78"/>
<path d="M91.732 104.989H15.683C9.06001 104.989 3.64101 99.57 3.64101 92.947V34.127C3.64101 27.504 9.06001 22.085 15.683 22.085H99.454C106.077 22.085 111.496 27.504 111.496 34.127V56.663" stroke="#589574" stroke-miterlimit="10" stroke-linecap="round" stroke-linejoin="round"/>
<path d="M91.732 87.74H15.762C12.204 87.74 9.293 84.829 9.293 81.271V34.467C9.293 30.909 12.204 27.997 15.763 27.997H99.376C102.934 27.997 105.845 30.908 105.845 34.466V56.141" stroke="#589574" stroke-miterlimit="10" stroke-linecap="round" stroke-linejoin="round"/>
<path opacity="0.3" d="M9.29199 36.519V34.467C9.29199 30.909 12.203 27.997 15.762 27.997H99.375C102.933 27.997 105.844 30.908 105.844 34.466V36.519H9.29199Z" fill="#66EE78"/>
<path d="M9.29199 36.519V34.467C9.29199 30.909 12.203 27.997 15.762 27.997H99.375C102.933 27.997 105.844 30.908 105.844 34.466V36.519H9.29199Z" stroke="#589574" stroke-miterlimit="10" stroke-linecap="round" stroke-linejoin="round"/>
<path opacity="0.3" d="M57.569 100.218C59.56 100.218 61.174 98.604 61.174 96.613C61.174 94.622 59.56 93.008 57.569 93.008C55.578 93.008 53.964 94.622 53.964 96.613C53.964 98.604 55.578 100.218 57.569 100.218Z" fill="#66EE78"/>
<path d="M57.569 100.218C59.56 100.218 61.174 98.604 61.174 96.613C61.174 94.622 59.56 93.008 57.569 93.008C55.578 93.008 53.964 94.622 53.964 96.613C53.964 98.604 55.578 100.218 57.569 100.218Z" stroke="#589574" stroke-miterlimit="10" stroke-linecap="round" stroke-linejoin="round"/>
<path d="M68.111 105.247C68.111 105.247 66.207 117.555 75.579 117.555H56.836H58.007H39.557C48.928 117.555 46.878 105.375 46.878 105.375M58.36 44.555H88.36M58.36 50.555H93.36M58.36 54.555H88.36M16.538 42.927H52.493V56.361H16.538V42.927Z" stroke="#589574" stroke-miterlimit="10" stroke-linecap="round" stroke-linejoin="round"/>
<path opacity="0.3" d="M16.538 63.77H34.516V81.748H16.538V63.77Z" fill="#66EE78"/>
<path d="M16.538 63.77H34.516V81.748H16.538V63.77ZM41.035 63.77H59.013V81.748H41.035V63.77ZM65.532 63.77H83.51V81.748H65.532V63.77ZM134.727 124.88H96.596C95.3183 124.876 94.0939 124.367 93.1904 123.464C92.2869 122.56 91.7777 121.336 91.774 120.058V61.48C91.7777 60.2023 92.2869 58.9779 93.1904 58.0744C94.0939 57.1709 95.3183 56.6617 96.596 56.658H134.727C136.005 56.6617 137.229 57.1709 138.133 58.0744C139.036 58.9779 139.545 60.2023 139.549 61.48V120.058C139.545 121.336 139.036 122.56 138.133 123.464C137.229 124.367 136.005 124.876 134.727 124.88Z" stroke="#589574" stroke-miterlimit="10" stroke-linecap="round" stroke-linejoin="round"/>
<path d="M133.102 113.904H98.222C97.3972 113.904 96.6061 113.576 96.0229 112.993C95.4397 112.41 95.112 111.619 95.112 110.794V63.66C95.112 62.8352 95.4397 62.0441 96.0229 61.4609C96.6061 60.8776 97.3972 60.55 98.222 60.55H133.102C133.927 60.55 134.718 60.8776 135.301 61.4609C135.884 62.0441 136.212 62.8352 136.212 63.66V110.794C136.212 111.619 135.884 112.41 135.301 112.993C134.718 113.576 133.927 113.904 133.102 113.904Z" stroke="#589574" stroke-miterlimit="10" stroke-linecap="round" stroke-linejoin="round"/>
<path opacity="0.3" d="M117.456 121.452C118.674 121.452 119.662 120.464 119.662 119.246C119.662 118.028 118.674 117.04 117.456 117.04C116.238 117.04 115.25 118.028 115.25 119.246C115.25 120.464 116.238 121.452 117.456 121.452Z" fill="#66EE78"/>
<path d="M117.456 121.452C118.674 121.452 119.662 120.464 119.662 119.246C119.662 118.028 118.674 117.04 117.456 117.04C116.238 117.04 115.25 118.028 115.25 119.246C115.25 120.464 116.238 121.452 117.456 121.452Z" stroke="#589574" stroke-miterlimit="10" stroke-linecap="round" stroke-linejoin="round"/>
<path opacity="0.3" d="M100.96 65.646H131.556V91.295H100.96V65.646Z" fill="#66EE78"/>
<path d="M101.36 98.555H125.36M101.36 102.555H121.36M100.318 65.646H131.556V91.295H100.318V65.646Z" stroke="#589574" stroke-miterlimit="10" stroke-linecap="round" stroke-linejoin="round"/>
<path d="M125.538 40.51V46.741M128.654 43.625H122.423" stroke="#589574" stroke-miterlimit="10" stroke-linecap="round" stroke-linejoin="round"/>
<path d="M135.663 18.369V28.777M140.867 23.573H130.46" stroke="#589574" stroke-miterlimit="10" stroke-linecap="round" stroke-linejoin="round"/>
</svg>
