<svg width="35" height="35" viewBox="0 0 35 35" fill="none" xmlns="http://www.w3.org/2000/svg">
<path d="M31.1719 3.80078C31.1719 1.99609 29.7227 0.546875 27.918 0.546875H7.08203C5.27734 0.546875 3.82812 1.99609 3.82812 3.80078V31.2266C3.82812 33.0312 5.27734 34.4805 7.08203 34.4805H27.9453C29.75 34.4805 31.1992 33.0312 31.1992 31.2266V3.80078H31.1719ZM30.0781 3.82812V30.9805C30.0781 32.2656 29.1211 33.3594 27.8359 33.3594H7.24609C5.96094 33.3594 4.92188 32.2656 4.92188 30.9805V3.82812C4.92188 2.54297 5.98828 1.64062 7.24609 1.64062H27.8086C29.0937 1.64062 30.1055 2.625 30.1055 3.91016L30.0781 3.82812ZM10.1172 29.7227L13.9727 25.8672L10.1172 22.0117V29.7227ZM13.9453 13.0703V5.03125L10.1445 5.05859C10.1445 5.05859 10.1719 17.6094 10.1992 17.5547C21.9023 12.9883 21.0547 16.2422 21.0547 16.2422V29.75L21.0273 29.8047H24.6094V16.2695C24.6094 8.85937 13.9453 13.0703 13.9453 13.0703ZM19.1406 9.84375H23.1875C25.375 7.10938 26.1133 5.19531 26.1133 5.19531H21.9297C21.9297 5.19531 20.5898 8.20312 19.1406 9.84375Z" fill="#6762A6"/>
</svg>
