<svg width="512" height="512" viewBox="0 0 512 512" fill="none" xmlns="http://www.w3.org/2000/svg">
<path d="M6.99805 11.998H506.002V498.002H6.99805V11.998Z" fill="#FFAA2B"/>
<path d="M45.0081 51.016H466.995V458.985H45.0081V51.016Z" fill="#3B3323"/>
<path opacity="0.302" d="M364 148C364.997 148.664 336 179 336 179L373.387 208.456L339 234L253 151L212 161L186 244L139 357L283 459H467V231C467 231 363.003 147.336 364 148ZM45.0081 51.001H466.995V64.999H45.0081V51.001Z" fill="black"/>
<path d="M196.007 298.553L178.288 356.903H139.49L205.477 150.999H253.44L320.344 356.903H280.018L261.383 298.553H196.007ZM254.968 270.142L238.777 219.43C234.806 206.905 231.445 192.852 228.39 180.937H227.779C224.724 192.852 221.669 207.209 218.003 219.43L202.117 270.142H254.968ZM375.329 166.578C375.329 177.881 367.081 186.741 353.944 186.741C341.419 186.741 333.171 177.882 333.171 166.578C333.171 154.969 341.725 146.11 354.25 146.11C367.081 146.11 375.023 154.969 375.329 166.578ZM335.31 356.902V208.125H373.191V356.902H335.31Z" fill="#FFAA2B"/>
</svg>
