<svg width="20" height="20" viewBox="0 0 20 20" fill="none" xmlns="http://www.w3.org/2000/svg">
<path d="M10 20C15.5228 20 20 15.5228 20 10C20 4.47715 15.5228 0 10 0C4.47715 0 0 4.47715 0 10C0 15.5228 4.47715 20 10 20Z" fill="#589574"/>
<path fill-rule="evenodd" clip-rule="evenodd" d="M16.5107 14.3642C16.3638 14.4505 16.1927 14.5 16.01 14.5H3.99C3.80733 14.5 3.63621 14.4505 3.48931 14.3642L7.5 10.3536L8.48989 11.3434C8.87243 11.726 9.38092 11.9167 10 11.9167C10.6191 11.9167 11.1276 11.726 11.5101 11.3434L12.5 10.3536L16.5107 14.3642ZM16.8642 14.0107L12.8536 10L16.8642 5.98931C16.9505 6.13621 17 6.30733 17 6.49V13.51C17 13.6927 16.9505 13.8638 16.8642 14.0107ZM3.13576 14.0107C3.04948 13.8638 3 13.6927 3 13.51V6.49C3 6.30733 3.04948 6.13621 3.13576 5.98931L7.14645 10L3.13576 14.0107ZM16.5107 5.63576L11.1566 10.9899C10.8724 11.274 10.492 11.4167 10 11.4167C9.50797 11.4167 9.12757 11.274 8.84344 10.9899L3.48931 5.63576C3.63621 5.54948 3.80733 5.5 3.99 5.5H16.01C16.1927 5.5 16.3638 5.54948 16.5107 5.63576Z" fill="white"/>
</svg>
