<svg width="50" height="56" viewBox="0 0 50 56" fill="none" xmlns="http://www.w3.org/2000/svg">
<path d="M22.7441 0.587829C24.1103 -0.194176 25.8898 -0.197708 27.2548 0.587829C34.1221 4.46823 40.9916 8.34254 47.8577 12.2253C49.1492 12.9527 50.013 14.39 49.9999 15.8781V39.224C50.0095 40.7737 49.0603 42.2453 47.6978 42.9562C40.853 46.8152 34.0118 50.679 27.1682 54.538C25.7738 55.3353 23.9586 55.2739 22.6077 54.4112C20.5556 53.2216 18.5 52.0379 16.4478 50.8495C16.0284 50.5995 15.5557 50.4005 15.2596 49.9939C15.5214 49.6411 15.9894 49.5971 16.3697 49.4431C17.2263 49.1707 18.013 48.7335 18.7999 48.3092C18.9989 48.173 19.2418 48.2252 19.4326 48.3471C21.1873 49.3532 22.9266 50.3885 24.6872 51.385C25.0628 51.6019 25.4431 51.314 25.7642 51.135C32.481 47.3388 39.206 43.5569 45.9217 39.7595C46.1705 39.6398 46.308 39.3757 46.2878 39.1031C46.2925 31.4018 46.289 23.6991 46.2902 15.9978C46.3186 15.6885 46.1397 15.4041 45.86 15.2776C39.039 11.4362 32.2215 7.58899 25.4017 3.74666C25.2836 3.66543 25.1436 3.62184 25.0002 3.62163C24.8568 3.62142 24.7167 3.6646 24.5983 3.74548C17.7785 7.58899 10.9622 11.4398 4.14234 15.2809C3.86369 15.4077 3.67667 15.6873 3.70984 15.9978C3.71102 23.6991 3.70984 31.4018 3.70984 39.1043C3.69801 39.2373 3.72722 39.3707 3.79353 39.4866C3.85985 39.6025 3.96008 39.6953 4.08073 39.7525C5.90063 40.7845 7.72289 41.8092 9.54397 42.8377C10.5699 43.3899 11.8295 43.718 12.9599 43.2949C13.9573 42.9372 14.6565 41.9193 14.6375 40.8602C14.6469 33.2038 14.6328 25.5463 14.6446 17.8911C14.6196 17.5512 14.9421 17.2704 15.2725 17.3023C16.147 17.2965 17.0226 17.2906 17.897 17.3047C18.262 17.2965 18.5132 17.6624 18.4681 18.0049C18.4645 25.7097 18.4775 33.4148 18.4622 41.1197C18.4645 43.1731 17.6209 45.4074 15.7215 46.4122C13.3816 47.6243 10.4894 47.3673 8.17777 46.205C6.17654 45.2061 4.26676 44.0273 2.30105 42.9572C0.935043 42.2502 -0.00944672 40.7727 0.000168901 39.2242V15.8781C-0.0141564 14.3592 0.884022 12.8958 2.21569 12.179C9.05927 8.31683 15.9017 4.45174 22.7441 0.587829Z" fill="white"/>
<path d="M28.7144 16.7598C31.6991 16.5676 34.8945 16.6459 37.5804 18.1163C39.6599 19.2431 40.8128 21.608 40.8495 23.9183C40.7914 24.2299 40.4657 24.4018 40.1682 24.3804C39.3022 24.3793 38.436 24.3922 37.57 24.3745C37.2026 24.3887 36.9891 24.05 36.943 23.7252C36.6942 22.6198 36.0913 21.525 35.0509 20.9918C33.4537 20.1921 31.6018 20.2324 29.8602 20.249C28.5888 20.3166 27.2216 20.4266 26.1445 21.1743C25.3175 21.7406 25.0663 22.8839 25.3615 23.8047C25.6397 24.4658 26.4029 24.6791 27.0273 24.8757C30.6244 25.8165 34.4361 25.7229 37.9644 26.961C39.4252 27.4657 40.8542 28.4469 41.3542 29.9763C42.0083 32.0262 41.7216 34.4764 40.2631 36.1221C39.0804 37.4763 37.3578 38.2134 35.6398 38.6137C33.3542 39.1233 30.9823 39.1363 28.6612 38.91C26.4786 38.6612 24.2074 38.0878 22.5225 36.6007C21.0817 35.3497 20.378 33.4005 20.4479 31.5191C20.4646 31.2014 20.7809 30.9799 21.0853 31.006C21.9573 30.9989 22.8294 30.9966 23.7015 31.0072C24.0498 30.9822 24.3081 31.2833 24.3259 31.6116C24.4868 32.6648 24.8826 33.7702 25.801 34.3946C27.5735 35.5381 29.7974 35.4598 31.8269 35.4918C33.5083 35.4172 35.3957 35.3946 36.7678 34.2833C37.4917 33.6495 37.7062 32.589 37.5105 31.6767C37.2986 30.9065 36.4928 30.5476 35.8009 30.3129C32.25 29.1896 28.3957 29.5972 24.8791 28.327C23.4515 27.8224 22.071 26.8685 21.5225 25.4018C20.7572 23.326 21.1078 20.7585 22.7191 19.1684C24.2902 17.5867 26.5581 16.9778 28.7144 16.7598Z" fill="white"/>
</svg>
