<svg width="18" height="18" viewBox="0 0 18 18" fill="none" xmlns="http://www.w3.org/2000/svg">
<path d="M2.63571 15.3643C6.15072 18.8793 11.8487 18.8793 15.3637 15.3643C18.8788 11.8493 18.8788 6.15126 15.3637 2.63625C11.8487 -0.878751 6.15072 -0.878751 2.63571 2.63625C-0.878571 6.15126 -0.878571 11.8493 2.63571 15.3643ZM6.62807 3.40305L7.96726 4.74223C8.2351 5.01007 8.29198 5.42406 8.10622 5.75454L7.60294 6.64805C7.54251 6.75518 7.51887 6.87918 7.53564 7.00103C7.55242 7.12288 7.60869 7.23587 7.69582 7.32268L10.6773 10.3042C10.7642 10.3912 10.8772 10.4473 10.9991 10.464C11.1209 10.4806 11.2449 10.4569 11.3519 10.3963L12.2455 9.89306C12.4062 9.80245 12.5922 9.76698 12.775 9.79208C12.9578 9.81717 13.1274 9.90145 13.2578 10.032L14.5977 11.3719C14.756 11.5305 14.8448 11.7454 14.8448 11.9695C14.8448 12.1936 14.756 12.4085 14.5977 12.5671L13.9634 13.2014C13.6115 13.5525 13.1536 13.7775 12.6607 13.8417C12.1678 13.9059 11.6675 13.8056 11.2375 13.5564L11.177 13.5218C8.54835 12.0198 6.34976 9.8676 4.79209 7.27157L4.48753 6.76325C4.22867 6.33254 4.12128 5.82763 4.18247 5.32885C4.24366 4.83007 4.46991 4.36608 4.82521 4.01072L5.43289 3.40305C5.51132 3.3245 5.60448 3.26219 5.70702 3.21967C5.80956 3.17716 5.91948 3.15528 6.03048 3.15528C6.14148 3.15528 6.2514 3.17716 6.35394 3.21967C6.45648 3.26219 6.54963 3.3245 6.62807 3.40305Z" fill="#589574"/>
</svg>
