<svg width="54" height="54" viewBox="0 0 54 54" fill="none" xmlns="http://www.w3.org/2000/svg">
<circle cx="27" cy="27" r="27" fill="#589574"/>
<g clip-path="url(#clip0_1143_11)">
<path d="M18.666 30.5487L34.173 33.2937L34.8225 30.6825L19.3155 27.9175L18.666 30.5487ZM18.3225 33.9637H34.1715V36.6225H18.3225V33.9637ZM20.7 24.2888L35.058 29.9463L36.3885 27.5163L22.023 21.8438L20.7 24.2888ZM35.0595 29.9475L35.058 29.9463L35.0565 29.9475H35.0595Z" fill="white"/>
<path d="M12 31.2863V42H40.488V31.2863H37.3185V39.3213H15.1695V31.2863H12Z" fill="white"/>
<path d="M24.6795 18.3287L36.843 26.92L38.862 24.8575L26.6985 16.2662L24.6795 18.3287ZM42 22.7337L32.547 12L30.0105 13.6075L39.4635 24.3412L42 22.7337Z" fill="white"/>
</g>
<defs>
<clipPath id="clip0_1143_11">
<rect width="36" height="30" fill="white" transform="translate(9 12)"/>
</clipPath>
</defs>
</svg>
