<svg width="36" height="36" viewBox="0 0 36 36" fill="none" xmlns="http://www.w3.org/2000/svg">
<path d="M0 0V36H36V0H0ZM20.9 19H16.21V32.76H13.21V19H8.57V16.46H20.9V19ZM26.29 33C24.7606 33.0297 23.247 32.6865 21.88 32L22.54 29.54C23.75 30.1951 25.104 30.5388 26.48 30.54C28.38 30.54 29.48 29.65 29.48 28.32C29.48 26.99 28.66 26.32 26.59 25.61C23.9 24.66 22.18 23.22 22.18 20.88C22.18 18.21 24.41 16.2 27.95 16.2C29.2986 16.1617 30.6376 16.4391 31.86 17.01L31.15 19.41C30.1425 18.8898 29.0238 18.6221 27.89 18.63C26 18.63 25.2 19.63 25.2 20.63C25.2 21.88 26.14 22.47 28.31 23.3C31.15 24.38 32.51 25.8 32.51 28.14C32.47 30.74 30.49 33 26.29 33Z" fill="white"/>
</svg>
