<svg width="256" height="256" viewBox="0 0 256 256" fill="none" xmlns="http://www.w3.org/2000/svg">
<path d="M206 12H50C26.804 12 8 30.804 8 54V202C8 225.196 26.804 244 50 244H206C229.196 244 248 225.196 248 202V54C248 30.804 229.196 12 206 12Z" fill="#470137"/>
<path d="M131.37 77.64L101.85 128.36L133.66 182.36C134.31 183.46 134.03 184 132.84 184H113C112.509 184.052 112.013 183.955 111.578 183.721C111.143 183.487 110.788 183.128 110.56 182.69L88.1701 141.62H88.0001L66.2001 182.69C65.9996 183.081 65.6962 183.409 65.3225 183.64C64.9489 183.871 64.5193 183.996 64.0801 184H45.0001C43.9101 184 43.7001 183.46 44.3501 182.36L75.6301 129.84L45.8301 77.31C45.1801 76.44 45.4001 76 46.4801 76H66.3601C66.7863 75.9695 67.2124 76.0616 67.588 76.2653C67.9637 76.4691 68.2732 76.7761 68.4801 77.15L89.4801 117.73H89.6401L110.53 77.15C110.736 76.7777 111.044 76.4718 111.418 76.2681C111.791 76.0645 112.215 75.9715 112.64 76H130.72C131.92 76 132.13 76.55 131.37 77.64ZM179.87 186C168.27 186 159.34 182.71 152.41 176.14C145.48 169.57 142 159.86 142 147C142 135.313 145.727 125.713 153.18 118.2C156.994 114.253 161.579 111.132 166.651 109.034C171.723 106.935 177.172 105.902 182.66 106C185.116 105.956 187.568 106.218 189.96 106.78V72.94C189.942 72.8132 189.954 72.684 189.994 72.5624C190.034 72.4408 190.102 72.3302 190.192 72.2392C190.282 72.1481 190.392 72.0792 190.513 72.0377C190.634 71.9962 190.763 71.9833 190.89 72H209.17C209.68 72 209.94 72.31 209.94 72.94V167.69C209.94 171.69 211.67 175.1 211.94 178.02C211.995 178.309 211.947 178.608 211.805 178.866C211.662 179.124 211.434 179.323 211.16 179.43C202.19 183.81 190.43 186 179.87 186ZM190 170.51V122.14C189.35 121 185.91 120 182.39 120C179.477 119.924 176.583 120.5 173.921 121.685C171.258 122.87 168.894 124.635 167 126.85C162.388 132.252 159.9 139.148 160 146.25C160 155.01 163 161.01 166.91 165.18C168.758 167.299 171.035 169.003 173.589 170.178C176.144 171.354 178.918 171.975 181.73 172C185.46 172 189.11 171.44 190 170.51Z" fill="#FF61F6"/>
</svg>
