<svg width="35" height="21" viewBox="0 0 35 21" fill="none" xmlns="http://www.w3.org/2000/svg">
<g clip-path="url(#clip0_1150_54)">
<path d="M9.86339 7.60136C9.85436 7.95115 9.89751 8.30032 9.99141 8.63739C10.0948 8.92564 10.2194 9.20586 10.364 9.47579C10.4158 9.55562 10.4441 9.64841 10.4455 9.74355C10.4455 9.85993 10.3757 9.97644 10.2244 10.0928L9.49103 10.5817C9.40255 10.6454 9.29735 10.6818 9.18841 10.6864C9.05582 10.6773 8.93136 10.6192 8.8392 10.5235C8.6823 10.3549 8.54192 10.1717 8.42 9.97637C8.30362 9.77848 8.18711 9.55717 8.05916 9.28955C7.15119 10.3603 6.01039 10.8957 4.63674 10.8957C3.6586 10.8957 2.87901 10.6162 2.30863 10.0573C1.73825 9.49835 1.4472 8.75377 1.4472 7.82254C1.4472 6.83309 1.79641 6.02988 2.50652 5.42457C3.21664 4.81926 4.15944 4.51656 5.35843 4.51656C5.77136 4.51994 6.18359 4.55106 6.59235 4.60972C7.02306 4.66794 7.46542 4.76103 7.931 4.86583V4.01605C7.931 3.13107 7.74469 2.51444 7.38391 2.15353C7.01128 1.79268 6.38281 1.61808 5.48645 1.61808C5.06284 1.61806 4.64075 1.66886 4.22924 1.76939C3.80132 1.87134 3.38119 2.0036 2.97204 2.16517C2.83966 2.2244 2.70356 2.27494 2.56461 2.31648C2.50434 2.33636 2.44168 2.34811 2.3783 2.35142C2.21534 2.35142 2.13383 2.23504 2.13383 1.99057V1.42019C2.13383 1.23388 2.15712 1.09414 2.21534 1.01277C2.30318 0.906658 2.41492 0.82288 2.54139 0.768297C3.00828 0.537284 3.50052 0.361496 4.00813 0.244494C4.60129 0.0922945 5.21173 0.0179436 5.82408 0.0233146C7.20957 0.0233146 8.22205 0.337583 8.87394 0.966187C9.51419 1.59479 9.8401 2.54931 9.8401 3.8298V7.60136H9.86339ZM5.13732 9.37073C5.54568 9.36624 5.95061 9.29547 6.3363 9.16119C6.76356 9.01339 7.14476 8.75648 7.44213 8.41594C7.62978 8.20138 7.76523 7.94631 7.83791 7.6707C7.91789 7.33913 7.95697 6.99902 7.95429 6.65796V6.16955C7.60135 6.08364 7.24386 6.01757 6.88353 5.97166C6.52054 5.92568 6.15503 5.90246 5.78914 5.90213C5.00923 5.90213 4.43885 6.05344 4.05471 6.36791C3.67057 6.68238 3.48433 7.12454 3.48433 7.70656C3.48433 8.25365 3.62406 8.66108 3.91504 8.94048C4.19451 9.23153 4.60187 9.37119 5.13732 9.37119V9.37073ZM14.4847 10.6279C14.2752 10.6279 14.1355 10.593 14.0424 10.5116C13.9492 10.4417 13.8678 10.2787 13.7979 10.0576L11.0622 1.05934C11.0092 0.90872 10.9741 0.752388 10.9575 0.593563C10.9575 0.407251 11.0507 0.302517 11.237 0.302517H12.3777C12.5989 0.302517 12.7504 0.33745 12.8317 0.418895C12.9249 0.488762 12.9947 0.651785 13.0646 0.872898L15.0202 8.57897L16.8361 0.873098C16.8943 0.640207 16.9641 0.488962 17.0573 0.419095C17.1505 0.349228 17.3134 0.302716 17.5231 0.302716H18.4546C18.6758 0.302716 18.8273 0.33765 18.9204 0.419095C19.0136 0.488962 19.095 0.651985 19.1416 0.873098L20.9808 8.67232L22.994 0.873098C23.0639 0.640207 23.1453 0.488962 23.2269 0.419095C23.3201 0.349228 23.4714 0.302716 23.6809 0.302716H24.7635C24.9498 0.302716 25.0545 0.395872 25.0545 0.593762C25.0518 0.656393 25.044 0.718701 25.0313 0.780075C25.013 0.879371 24.9857 0.976792 24.9497 1.07112L22.1444 10.0693C22.0745 10.3021 21.993 10.4535 21.8999 10.5233C21.7683 10.6076 21.6135 10.6483 21.4575 10.6397H20.4564C20.2352 10.6397 20.0837 10.6048 19.9906 10.5233C19.8974 10.4419 19.816 10.2904 19.7694 10.0576L17.9652 2.54931L16.1725 10.0459C16.1143 10.2788 16.0445 10.43 15.9513 10.5117C15.8582 10.5933 15.6952 10.6281 15.4856 10.6281L14.4847 10.6279ZM29.4429 10.9422C28.8392 10.9428 28.2376 10.8725 27.6503 10.7327C27.0683 10.5929 26.6142 10.4416 26.3116 10.2669C26.1253 10.1622 25.9974 10.0457 25.9508 9.94084C25.9055 9.83808 25.8817 9.72711 25.8809 9.6148V9.02153C25.8809 8.77706 25.9741 8.66068 26.1487 8.66068C26.2199 8.66092 26.2907 8.67272 26.3582 8.69561C26.4281 8.7189 26.5328 8.76548 26.6492 8.81199C27.0604 8.99283 27.4897 9.12941 27.9297 9.21942C28.3857 9.31197 28.8497 9.35878 29.315 9.35915C30.0483 9.35915 30.6188 9.23113 31.0145 8.97501C31.2042 8.8606 31.3601 8.69801 31.4664 8.50376C31.5728 8.30952 31.6258 8.09057 31.6201 7.86918C31.6242 7.71933 31.5985 7.57015 31.5445 7.43028C31.4906 7.29041 31.4094 7.16263 31.3058 7.05434C31.0963 6.83316 30.7003 6.63513 30.1301 6.44882L28.4418 5.92508C27.5921 5.65739 26.9635 5.26161 26.5794 4.73768C26.2046 4.25458 26 3.66117 25.9974 3.04976C25.9879 2.59903 26.0962 2.15365 26.3116 1.75761C26.5196 1.38311 26.8055 1.05761 27.15 0.803097C27.5128 0.528427 27.9233 0.323144 28.3607 0.197583C28.8372 0.0604237 29.3312 -0.0061365 29.8271 2.55531e-05C30.0878 -0.00186453 30.3483 0.0136963 30.607 0.0466036C30.8747 0.0815371 31.1193 0.128115 31.3636 0.174627C31.5965 0.232849 31.8176 0.291005 32.0271 0.360939C32.197 0.413482 32.3609 0.483712 32.5161 0.570473C32.6532 0.639593 32.7726 0.739146 32.8653 0.86152C32.941 0.974795 32.9777 1.10963 32.97 1.24566V1.79275C32.97 2.03722 32.8769 2.16537 32.7023 2.16537C32.6091 2.16537 32.4578 2.11879 32.2599 2.02564C31.5964 1.72297 30.8514 1.57163 30.0249 1.57163C29.3614 1.57163 28.8376 1.67637 28.4767 1.89768C28.1159 2.11899 27.9296 2.45662 27.9296 2.93371C27.9264 3.08828 27.9559 3.24179 28.016 3.38421C28.0762 3.52662 28.1658 3.65474 28.2788 3.7602C28.5117 3.98138 28.9424 4.20256 29.5593 4.40045L31.2123 4.92399C32.0507 5.19175 32.6558 5.56424 33.0166 6.04146C33.3719 6.50973 33.5604 7.0834 33.552 7.67116C33.5581 8.13872 33.4544 8.60118 33.2494 9.02146C33.0429 9.41988 32.7531 9.76924 32.3996 10.0458C32.0153 10.345 31.5764 10.5665 31.1075 10.6979C30.5683 10.8638 30.007 10.9462 29.4429 10.9424L29.4429 10.9422Z" fill="#252F3E"/>
<path d="M31.643 16.5994C27.8132 19.428 22.249 20.9296 17.4647 20.9296C10.7597 20.9299 4.71816 18.4504 0.155174 14.3297C-0.205673 14.0036 0.12024 13.5614 0.550954 13.8173C5.48656 16.6809 11.5746 18.4152 17.8722 18.4152C22.121 18.4152 26.7889 17.5302 31.0843 15.7146C31.7246 15.4235 32.2717 16.1338 31.6433 16.5995L31.643 16.5994Z" fill="#FF9900"/>
<path d="M33.2378 14.7836C32.7488 14.155 30.0017 14.481 28.7561 14.6323C28.3835 14.6789 28.3254 14.3528 28.6629 14.1085C30.8514 12.5719 34.4483 13.0142 34.8674 13.5265C35.2866 14.0503 34.751 17.6472 32.7022 19.3701C32.388 19.6378 32.0853 19.4981 32.225 19.1489C32.6907 17.9964 33.7267 15.4006 33.2378 14.7836Z" fill="#FF9900"/>
</g>
<defs>
<clipPath id="clip0_1150_54">
<rect width="35" height="20.9298" fill="white"/>
</clipPath>
</defs>
</svg>
