<svg width="144" height="144" viewBox="0 0 144 144" fill="none" xmlns="http://www.w3.org/2000/svg">
<path d="M28.719 108.842C27.7176 107.656 27.1659 106.156 27.161 104.604V52.661C27.161 50.9053 27.8585 49.2215 29.0999 47.98C30.3414 46.7385 32.0253 46.041 33.781 46.041H99.039M128.897 71.856V104.604C128.905 106.154 128.361 107.656 127.363 108.842" stroke="#589574" stroke-miterlimit="10" stroke-linecap="round" stroke-linejoin="round"/>
<path d="M125.014 77.441V98.236C125.014 99.9917 124.317 101.676 123.075 102.917C121.834 104.159 120.15 104.856 118.394 104.856H37.665C35.9093 104.856 34.2254 104.159 32.9839 102.917C31.7425 101.676 31.045 99.9917 31.045 98.236V56.068C31.045 54.3123 31.7425 52.6284 32.9839 51.3869C34.2254 50.1455 35.9093 49.448 37.665 49.448H99.512M136.502 108.842H19.557C18.7621 108.842 17.9998 109.158 17.4378 109.72C16.8758 110.282 16.56 111.044 16.56 111.839V112.055C16.56 112.85 16.8758 113.612 17.4378 114.174C17.9998 114.736 18.7621 115.052 19.557 115.052H136.501C137.296 115.052 138.058 114.736 138.62 114.174C139.182 113.612 139.498 112.85 139.498 112.055V111.839C139.498 111.445 139.421 111.056 139.27 110.692C139.12 110.329 138.899 109.998 138.621 109.72C138.343 109.442 138.012 109.221 137.649 109.07C137.285 108.92 136.896 108.842 136.502 108.842Z" stroke="#589574" stroke-miterlimit="10" stroke-linecap="round" stroke-linejoin="round"/>
<path opacity="0.3" d="M97.106 111.948H58.953C58.5558 111.947 58.1751 111.789 57.8942 111.508C57.6133 111.227 57.4551 110.846 57.454 110.449V110.341C57.454 109.517 58.128 108.842 58.953 108.842H97.106C97.93 108.842 98.605 109.516 98.605 110.341V110.449C98.6034 110.846 98.445 111.226 98.1642 111.507C97.8834 111.788 97.5031 111.946 97.106 111.948Z" fill="#66EE78"/>
<path d="M41.36 59.555H76.36M41.36 69.555H81.36M7.49901 43.656V53.368M12.355 48.512H2.64301M15.463 65.289V71.104M18.37 68.196H12.556M97.106 111.948H58.953C58.5558 111.947 58.1751 111.789 57.8942 111.508C57.6133 111.227 57.4551 110.846 57.454 110.449V110.341C57.454 109.517 58.128 108.842 58.953 108.842H97.106C97.93 108.842 98.605 109.516 98.605 110.341V110.449C98.6034 110.846 98.445 111.226 98.1642 111.507C97.8834 111.788 97.5031 111.946 97.106 111.948ZM137.801 54.345L141.032 53.468L138.964 45.853L135.248 46.862C134.203 44.965 133.002 43.49 131.642 42.265L133.525 38.73L126.577 34.679L124.668 37.996C122.557 37.326 120.208 37.006 118.051 37.092L117.154 33.788L110.047 35.718L110.944 39.022C108.025 40.315 106.804 41.56 105.322 43.205L101.79 41.321L97.741 48.268L101.158 50.543C100.555 52.4156 100.275 54.3774 100.331 56.344L96.32 57.433L98.388 65.048L101.914 64.09C102.994 66.522 104.512 68.41 106.436 70.143L104.467 73.364L111.372 77.258L113.62 73.765C115.731 74.435 117.404 74.854 120.576 74.493L121.626 78.359L128.733 76.429L127.683 72.563C129.587 71.545 131.463 70.123 132.945 68.477L136.297 70.41L140.256 63.487L136.964 61.851C137.749 59.384 138.1 56.99 137.801 54.345ZM121.896 67.306C115.584 69.02 109.077 65.293 107.363 58.981C105.649 52.669 109.376 46.162 115.688 44.447C122 42.733 128.507 46.46 130.222 52.772C131.936 59.085 128.208 65.592 121.896 67.306Z" stroke="#589574" stroke-miterlimit="10" stroke-linecap="round" stroke-linejoin="round"/>
<path opacity="0.3" d="M137.801 54.345L141.032 53.468L138.964 45.853L135.248 46.862C134.203 44.965 133.002 43.49 131.642 42.265L133.525 38.73L126.577 34.679L124.668 37.996C122.557 37.326 120.208 37.006 118.051 37.092L117.154 33.788L110.047 35.718L110.944 39.022C108.025 40.315 106.804 41.56 105.322 43.205L101.79 41.321L97.741 48.268L101.158 50.543C100.555 52.4156 100.275 54.3774 100.331 56.344L96.32 57.433L98.388 65.048L101.914 64.09C102.994 66.522 104.512 68.41 106.436 70.143L104.467 73.364L111.372 77.258L113.62 73.765C115.731 74.435 117.404 74.854 120.576 74.493L121.626 78.359L128.733 76.429L127.683 72.563C129.587 71.545 131.463 70.123 132.945 68.477L136.297 70.41L140.256 63.487L136.964 61.851C137.749 59.384 138.1 56.99 137.801 54.345ZM121.896 67.306C115.584 69.02 109.077 65.293 107.363 58.981C105.649 52.669 109.376 46.162 115.688 44.447C122 42.733 128.507 46.46 130.222 52.772C131.936 59.085 128.208 65.592 121.896 67.306Z" fill="#66EE78"/>
<path d="M41.36 78.555H95.36" stroke="#589574" stroke-miterlimit="10" stroke-linecap="round" stroke-linejoin="round"/>
<path opacity="0.3" d="M112.973 96.86H43.086C42.4455 96.8581 41.8318 96.6029 41.379 96.15C40.9261 95.6972 40.6709 95.0835 40.669 94.443V89.261C40.6711 88.6206 40.9264 88.0071 41.3793 87.5542C41.8321 87.1014 42.4456 86.8461 43.086 86.844H112.973C113.613 86.8458 114.227 87.1011 114.68 87.554C115.133 88.0068 115.388 88.6205 115.39 89.261V94.443C115.388 95.0835 115.133 95.6972 114.68 96.15C114.227 96.6029 113.613 96.8581 112.973 96.86Z" fill="#66EE78"/>
</svg>
