<svg width="20" height="20" fill="none" xmlns="http://www.w3.org/2000/svg"><path d="M19.235 10.677A.765.765 0 0020 9.912v-1.02c0-4.046-1.802-6.016-5.495-6.016H11.78a1.424 1.424 0 01-1.134-.554l-.879-1.17A2.989 2.989 0 007.402 0H5.486C1.846 0 0 2.102 0 6.253v7.502C0 17.608 2.391 20 6.25 20h7.49c3.851 0 6.251-2.392 6.251-6.245a.774.774 0 00-1.538 0c0 3.035-1.67 4.715-4.712 4.715h-7.5c-3.041 0-4.711-1.671-4.711-4.714v-.73h12.307a.765.765 0 000-1.53H1.53V6.217c0-3.307 1.178-4.723 3.947-4.723H7.41c.444.007.86.214 1.134.563l.88 1.161a2.962 2.962 0 002.355 1.179h2.717c2.857 0 3.965 1.275 3.965 4.494v1.02a.765.765 0 00.773.765z" fill="#589574"/></svg>