<svg width="35" height="29" viewBox="0 0 35 29" fill="none" xmlns="http://www.w3.org/2000/svg">
<g clip-path="url(#clip0_1150_48)">
<path d="M23.2762 7.76761L26.3184 4.72511L26.5206 3.44472C20.9774 -1.59677 12.1649 -1.0246 7.16633 4.63735C5.76935 6.24176 4.75493 8.14246 4.19958 10.1961L5.28871 10.0419L11.3735 9.04025L11.8424 8.56011C13.1439 7.12117 14.9451 6.23273 16.879 6.07591C18.8128 5.91909 20.7337 6.50568 22.25 7.71613L23.2762 7.76761Z" fill="#EA4335"/>
<path d="M30.6536 10.1051C29.9543 7.52962 28.5184 5.21434 26.522 3.44336L22.2517 7.7137C23.1415 8.44073 23.8546 9.36034 24.3372 10.4031C24.8199 11.446 25.0594 12.5847 25.0378 13.7336V14.4912C26.0401 14.4912 27.0013 14.8893 27.71 15.598C28.4187 16.3067 28.8168 17.2679 28.8168 18.2702C28.8168 19.2724 28.4187 20.2336 27.71 20.9423C27.0013 21.651 26.0401 22.0492 25.0378 22.0492H17.4276L16.6807 22.8606V27.4196L17.4276 28.1355H25.0381C27.1581 28.1579 29.2289 27.4962 30.9432 26.2486C32.6574 25.001 33.9237 23.2339 34.5542 21.2096C35.1847 19.1854 35.1457 17.0118 34.4431 15.0114C33.7405 13.011 32.4114 11.2905 30.6536 10.1051Z" fill="#4285F4"/>
<path d="M9.82589 28.1355H17.4282V22.0507H9.82589C9.288 22.0503 8.7565 21.9341 8.26756 21.7098L7.18911 22.0401L4.12527 25.0823L3.85852 26.1175C5.5737 27.4242 7.6697 28.133 9.82589 28.1355Z" fill="#34A853"/>
<path d="M9.82611 8.39826C7.76663 8.41079 5.76248 9.0662 4.09355 10.273C2.42462 11.4797 1.17423 13.1776 0.517009 15.1294C-0.140213 17.0812 -0.171454 19.1896 0.42765 21.16C1.02675 23.1305 2.22629 24.8646 3.85873 26.1203L8.26804 21.711C7.70776 21.4579 7.21724 21.0726 6.83859 20.5883C6.45994 20.1039 6.20445 19.5349 6.09405 18.9301C5.98365 18.3253 6.02164 17.7027 6.20476 17.1158C6.38787 16.5289 6.71064 15.9952 7.14537 15.5604C7.58011 15.1257 8.11382 14.8029 8.70073 14.6198C9.28763 14.4367 9.9102 14.3987 10.515 14.5091C11.1198 14.6195 11.6888 14.875 12.1732 15.2537C12.6576 15.6323 13.0428 16.1228 13.2959 16.6831L17.7053 12.2738C16.7798 11.0639 15.587 10.0845 14.2201 9.41219C12.8532 8.73986 11.3494 8.39284 9.82611 8.39826Z" fill="#FBBC05"/>
</g>
<defs>
<clipPath id="clip0_1150_48">
<rect width="35" height="28.1361" fill="white"/>
</clipPath>
</defs>
</svg>
