<svg width="18" height="18"  viewBox="0 0 18 18" fill="none" xmlns="http://www.w3.org/2000/svg"><path d="M9 .247a9 9 0 00-2.846 17.538c.45.08.618-.19.618-.427 0-.214-.01-.923-.01-1.676-2.262.416-2.847-.552-3.027-1.058a3.272 3.272 0 00-.922-1.271c-.315-.169-.765-.585-.012-.596a1.802 1.802 0 011.384.922 1.923 1.923 0 002.621.743c.04-.458.243-.886.574-1.204-2.003-.225-4.095-1.001-4.095-4.444a3.503 3.503 0 01.922-2.419 3.234 3.234 0 01.09-2.385s.754-.236 2.475.923a8.485 8.485 0 014.5 0c1.722-1.17 2.475-.923 2.475-.923a3.23 3.23 0 01.09 2.385c.607.658.938 1.524.923 2.42 0 3.453-2.104 4.218-4.106 4.443a2.131 2.131 0 01.607 1.665c0 1.204-.011 2.171-.011 2.475 0 .236.169.517.619.427A9.005 9.005 0 009 .247z" fill="#589574"/></svg>