<svg width="18" height="19.37" viewBox="0 0 21 22" fill="none" xmlns="http://www.w3.org/2000/svg"><path d="M8.521 19.506a1 1 0 00-1.18-.983c-1.31.24-2.963.276-3.402-.959a5.707 5.707 0 00-1.837-2.415 1.204 1.204 0 01-.166-.109 1 1 0 00-.931-.645H1a1 1 0 00-1 .995c-.004.815.811 1.338 1.142 1.514.39.392.703.853.923 1.36.365 1.023 1.423 2.576 4.466 2.376l.003.098.004.268a1 1 0 102 0l-.005-.318c-.005-.19-.012-.464-.012-1.182zM19.19 4.38c.031-.125.063-.264.09-.42a6.277 6.277 0 00-.41-3.293 1.002 1.002 0 00-.616-.58c-.356-.12-1.67-.357-4.184 1.25a13.869 13.869 0 00-6.354 0C5.213-.246 3.906-.031 3.553.082a.998.998 0 00-.631.584 6.3 6.3 0 00-.403 3.356c.024.128.05.247.078.355a6.27 6.27 0 00-1.256 3.83 8.56 8.56 0 00.043.92c.334 4.603 3.334 5.985 5.424 6.46a4.592 4.592 0 00-.118.4 1 1 0 001.942.479 1.68 1.68 0 01.468-.878 1 1 0 00-.546-1.745C5.1 13.448 3.601 12.04 3.375 8.944a6.614 6.614 0 01-.034-.738 4.258 4.258 0 011.116-2.944 1 1 0 00.188-1.025 3.388 3.388 0 01-.156-.555 4.094 4.094 0 01.079-1.616 7.55 7.55 0 012.415 1.18 1.009 1.009 0 00.828.133 11.777 11.777 0 016.172 0 1.006 1.006 0 00.83-.137 7.573 7.573 0 012.406-1.19c.133.515.163 1.051.088 1.578a3.207 3.207 0 01-.17.607 1 1 0 00.189 1.025c.077.087.154.18.223.268.607.758.926 1.706.902 2.676.002.26-.01.52-.037.777-.22 3.056-1.726 4.464-5.196 4.86a1 1 0 00-.546 1.746c.249.245.412.563.467.908a3.1 3.1 0 01.092.82v2.333c-.01.648-.01 1.133-.01 1.356a1 1 0 102 0c0-.217 0-.692.01-1.34v-2.35a4.886 4.886 0 00-.155-1.311c-.032-.14-.07-.28-.116-.416a6.513 6.513 0 005.445-6.424c.033-.319.048-.639.046-.959A6.131 6.131 0 0019.19 4.38z" fill="#000"/></svg>