<svg width="24" height="24" viewBox="0 0 24 24" fill="none" xmlns="http://www.w3.org/2000/svg">
<g clip-path="url(#clip0_1149_46)">
<path d="M4.65702 5.218C4.41745 5.07744 4.15223 4.98611 3.8769 4.94937C3.60158 4.91264 3.32169 4.93123 3.05365 5.00406C2.7856 5.07689 2.53479 5.2025 2.31592 5.37352C2.09704 5.54454 1.91451 5.75753 1.77902 6C1.67948 6.17741 1.60542 6.36794 1.55902 6.566C1.28702 7.717 1.98302 8.874 3.11302 9.15L3.11202 14.849C2.71898 14.9468 2.36265 15.1562 2.08602 15.452C1.7004 15.8657 1.49176 16.4137 1.50466 16.979C1.51755 17.5444 1.75095 18.0824 2.15502 18.478C2.35337 18.6717 2.58844 18.8238 2.84642 18.9254C3.1044 19.0269 3.38008 19.0759 3.65726 19.0694C3.93443 19.0629 4.2075 19.001 4.46042 18.8874C4.71334 18.7738 4.941 18.6108 5.13002 18.408L9.98302 21.255C9.92533 21.4529 9.89603 21.6579 9.89602 21.864C9.89702 23.045 10.839 24.001 12 24C12.224 24 12.445 23.963 12.659 23.892C13.763 23.521 14.363 22.31 13.997 21.186L18.819 18.354C19.039 18.6061 19.3164 18.8016 19.6277 18.9241C19.9391 19.0465 20.2753 19.0924 20.608 19.0578C20.9408 19.0232 21.2604 18.9091 21.5399 18.7252C21.8194 18.5413 22.0506 18.2929 22.214 18.001C22.317 17.82 22.395 17.624 22.442 17.42C22.711 16.274 22.015 15.124 20.889 14.851V9.152C21.0818 9.10438 21.2667 9.02928 21.438 8.929C21.9258 8.64053 22.2809 8.17224 22.4272 7.62475C22.5734 7.07726 22.499 6.49425 22.22 6.001C22.1197 5.82512 21.9948 5.6645 21.849 5.524C21.6499 5.33018 21.414 5.17815 21.1553 5.07687C20.8965 4.9756 20.6201 4.92712 20.3423 4.9343C20.0645 4.94147 19.791 5.00415 19.5378 5.11865C19.2846 5.23315 19.0569 5.39715 18.868 5.601L14.016 2.751C14.074 2.552 14.105 2.343 14.104 2.134C14.103 0.954001 13.161 -0.000999215 12 7.84623e-07C11.797 7.84623e-07 11.594 0.0290008 11.4 0.0880008C10.289 0.423001 9.65302 1.612 9.98302 2.745L5.12802 5.595C4.99063 5.44662 4.83189 5.31956 4.65702 5.218ZM13.556 20.421C13.3604 20.2017 13.1207 20.0261 12.8526 19.9058C12.5844 19.7855 12.2939 19.7232 12 19.723C11.404 19.723 10.867 19.972 10.486 20.376L5.63002 17.524L5.65102 17.441H18.349C18.36 17.489 18.372 17.536 18.386 17.583L13.556 20.421ZM13.51 3.628L18.373 6.486L18.354 6.558C18.075 7.704 18.76 8.863 19.886 9.146V14.853C19.86 14.86 19.831 14.867 19.805 14.876L13.453 3.686C13.4733 3.66793 13.4923 3.64855 13.51 3.628ZM11.415 4.194C11.797 4.306 12.203 4.306 12.587 4.194L18.94 15.38C18.6479 15.6651 18.4423 16.0271 18.347 16.424H5.65402C5.5585 16.0287 5.3541 15.668 5.06402 15.383L11.415 4.194ZM5.62402 6.479L10.487 3.627L10.546 3.687L4.19602 14.876L4.11302 14.853V9.145L4.18802 9.124C5.30302 8.797 5.94602 7.614 5.62402 6.479Z" fill="#DF34A6"/>
</g>
<defs>
<clipPath id="clip0_1149_46">
<rect width="24" height="24" fill="white"/>
</clipPath>
</defs>
</svg>
