<svg width="35" height="35"  viewBox="0 0 35 35" fill="none" xmlns="http://www.w3.org/2000/svg"><path d="M0 0v34.4h34.4V0H0zm18.73 25.79c0 4.23-2.05 5.64-5.09 5.64a7.65 7.65 0 01-2.34-.37l.34-2.26a5.19 5.19 0 001.72.28c1.6 0 2.57-.72 2.57-3.38v-9.84h2.8v9.93zm6.52 5.62a9 9 0 01-4.14-1l.62-2.32a7.76 7.76 0 003.7 1c1.77.01 2.77-.83 2.77-2.08s-.76-1.81-2.7-2.54c-2.53-.9-4.14-2.26-4.14-4.45 0-2.51 2.09-4.4 5.42-4.4a8.06 8.06 0 013.67.76l-.67 2.25a6.63 6.63 0 00-3.06-.72c-1.78 0-2.53.94-2.53 1.84 0 1.18.89 1.73 2.93 2.51 2.66 1 3.94 2.35 3.94 4.55 0 2.47-1.86 4.6-5.81 4.6z" fill="#fff"/></svg>