<svg width="20" height="20" fill="none" xmlns="http://www.w3.org/2000/svg"><path d="M10 20c5.523 0 10-4.477 10-10S15.523 0 10 0 0 4.477 0 10s4.477 10 10 10z" fill="#589574"/><path fill-rule="evenodd" clip-rule="evenodd" d="M16.51 14.364a.985.985 0 01-.5.136H3.99a.985.985 0 01-.5-.136l4.01-4.01.99.99c.382.382.89.573 1.51.573s1.128-.191 1.51-.574l.99-.99 4.01 4.011zm.354-.353L12.854 10l4.01-4.01a.985.985 0 01.136.5v7.02c0 .183-.05.354-.136.5zm-13.728 0A.985.985 0 013 13.51V6.49c0-.183.05-.354.136-.5L7.146 10l-4.01 4.01zM16.51 5.636l-5.354 5.354c-.285.284-.665.427-1.157.427s-.872-.143-1.157-.427L3.49 5.636a.985.985 0 01.5-.136h12.02c.183 0 .354.05.5.136z" fill="#fff"/></svg>