<svg width="144" height="144" viewBox="0 0 144 144" fill="none" xmlns="http://www.w3.org/2000/svg">
<path d="M77.732 111.245C73.4659 112.661 69.0009 113.385 64.506 113.391C41.702 113.391 23.216 94.905 23.216 72.101C23.216 49.297 41.702 30.811 64.506 30.811C86.23 30.811 104.035 47.788 105.673 69.092" stroke="#589574" stroke-miterlimit="10" stroke-linecap="round" stroke-linejoin="round"/>
<path opacity="0.3" d="M64.412 113.388L64.506 113.39V113.328C64.475 113.348 64.444 113.37 64.412 113.388ZM64.506 30.873V30.811L64.412 30.813C64.444 30.832 64.475 30.854 64.506 30.873ZM41.122 72.101C41.122 54.291 50.911 38.696 64.405 30.814C41.648 30.869 23.217 49.332 23.217 72.101C23.217 94.871 41.648 113.333 64.405 113.388C50.907 105.507 41.122 89.914 41.122 72.101Z" fill="#66EE78"/>
<path d="M64.409 113.391C50.91 105.51 41.122 89.916 41.122 72.101C41.122 54.289 50.913 38.693 64.409 30.811V113.391Z" stroke="#589574" stroke-miterlimit="10" stroke-linecap="round" stroke-linejoin="round"/>
<path d="M87.615 67.171C85.92 51.523 76.595 37.928 64.409 30.811V113.391C67.6657 111.475 70.6809 109.176 73.39 106.542" stroke="#589574" stroke-miterlimit="10" stroke-linecap="round" stroke-linejoin="round"/>
<path d="M94.532 43.694C91.39 49.429 79.14 53.706 64.506 53.706C49.918 53.706 37.698 49.455 34.51 43.746M34.795 100.768C38.375 95.298 50.321 91.278 64.506 91.278C65.863 91.278 67.2 91.315 68.511 91.386M77.507 72.493L23.231 72.481" stroke="#589574" stroke-miterlimit="10" stroke-linecap="round" stroke-linejoin="round"/>
<path d="M139.908 121.11C139.625 121.546 139.258 121.923 138.829 122.217C138.401 122.512 137.918 122.718 137.409 122.826C136.901 122.939 136.376 122.95 135.864 122.86C135.352 122.769 134.863 122.578 134.425 122.298L113.28 108.682C113.254 108.665 113.229 108.649 113.2 108.622C109.615 112.694 104.817 115.508 99.513 116.65C85.774 119.626 72.227 110.902 69.251 97.163C66.277 83.423 75 69.876 88.74 66.9C102.479 63.924 116.026 72.648 119.002 86.387C120.143 91.6028 119.603 97.0459 117.46 101.936C117.504 101.957 117.546 101.981 117.586 102.008L138.718 115.616C139.603 116.188 140.225 117.087 140.448 118.117C140.671 119.147 140.477 120.223 139.908 121.11Z" stroke="#589574" stroke-miterlimit="10" stroke-linecap="round" stroke-linejoin="round"/>
<path opacity="0.3" d="M98.2564 110.824C108.779 108.545 115.462 98.1668 113.182 87.644C110.903 77.1213 100.525 70.4387 90.0023 72.718C79.4795 74.9973 72.7969 85.3755 75.0762 95.8982C77.3556 106.421 87.7337 113.104 98.2564 110.824Z" fill="#66EE78"/>
<path d="M98.2564 110.824C108.779 108.545 115.462 98.1668 113.182 87.644C110.903 77.1213 100.525 70.4387 90.0023 72.718C79.4795 74.9973 72.7969 85.3755 75.0762 95.8982C77.3556 106.421 87.7337 113.104 98.2564 110.824Z" stroke="#589574" stroke-miterlimit="10" stroke-linecap="round" stroke-linejoin="round"/>
<path d="M9.43601 90.27V101.276M14.939 95.773H3.93301" stroke="#589574" stroke-miterlimit="10" stroke-linecap="round" stroke-linejoin="round"/>
<path d="M31.549 113.508V120.097M34.843 116.803H28.254" stroke="#589574" stroke-miterlimit="10" stroke-linecap="round" stroke-linejoin="round"/>
<path d="M23.526 22.171V33.177M29.029 27.674H18.023" stroke="#589574" stroke-miterlimit="10" stroke-linecap="round" stroke-linejoin="round"/>
</svg>
