<svg width="50" height="56"  viewBox="0 0 50 56" fill="none" xmlns="http://www.w3.org/2000/svg"><path d="M22.744.588c1.366-.782 3.146-.786 4.51 0 6.868 3.88 13.738 7.755 20.604 11.637 1.291.728 2.155 2.165 2.142 3.653v23.346c.01 1.55-.94 3.021-2.302 3.732-6.845 3.86-13.686 7.723-20.53 11.582-1.394.797-3.21.736-4.56-.127-2.052-1.19-4.108-2.373-6.16-3.562-.42-.25-.892-.448-1.188-.855.261-.353.73-.397 1.11-.55.856-.273 1.643-.71 2.43-1.135.199-.136.442-.084.633.038 1.754 1.006 3.494 2.041 5.254 3.038.376.217.756-.071 1.077-.25 6.717-3.796 13.442-7.578 20.158-11.375a.667.667 0 00.366-.657c.005-7.701.001-15.404.002-23.105a.722.722 0 00-.43-.72c-6.821-3.842-13.639-7.689-20.458-11.531a.71.71 0 00-.804-.002C17.778 7.59 10.962 11.44 4.142 15.281a.714.714 0 00-.432.717v23.106a.653.653 0 00.37.648c1.82 1.032 3.643 2.057 5.464 3.086 1.026.552 2.285.88 3.416.457.997-.358 1.696-1.376 1.677-2.435.01-7.656-.004-15.314.008-22.969-.025-.34.297-.62.628-.589.874-.005 1.75-.011 2.624.003.365-.008.616.357.571.7-.003 7.705.01 15.41-.006 23.115.003 2.053-.841 4.287-2.74 5.292-2.34 1.212-5.233.955-7.544-.207-2.001-.999-3.911-2.178-5.877-3.248-1.366-.707-2.31-2.184-2.3-3.733V15.878c-.015-1.519.883-2.982 2.215-3.699C9.059 8.317 15.902 4.452 22.744.588z" fill="#fff"/><path d="M28.714 16.76c2.985-.192 6.18-.114 8.866 1.356 2.08 1.127 3.233 3.492 3.27 5.802-.059.312-.384.484-.682.462-.866 0-1.732.012-2.598-.005-.367.014-.58-.325-.627-.65-.249-1.105-.852-2.2-1.892-2.733-1.597-.8-3.45-.76-5.19-.743-1.272.068-2.64.178-3.716.925-.828.567-1.079 1.71-.784 2.63.279.662 1.042.875 1.666 1.072 3.597.94 7.41.847 10.937 2.085 1.461.505 2.89 1.486 3.39 3.015.654 2.05.368 4.5-1.09 6.146-1.184 1.354-2.906 2.091-4.624 2.492-2.286.51-4.658.522-6.979.296-2.182-.249-4.454-.822-6.139-2.31-1.44-1.25-2.144-3.2-2.074-5.08.017-.319.333-.54.637-.514.872-.007 1.744-.01 2.616.001.349-.025.607.276.625.605.16 1.053.557 2.158 1.475 2.783 1.773 1.143 3.996 1.065 6.026 1.097 1.681-.075 3.569-.097 4.94-1.209.725-.633.94-1.694.743-2.606-.211-.77-1.017-1.13-1.71-1.364-3.55-1.123-7.404-.716-10.92-1.986-1.428-.505-2.809-1.459-3.357-2.925-.766-2.076-.415-4.643 1.196-6.234 1.571-1.581 3.84-2.19 5.995-2.408z" fill="#fff"/></svg>