<svg width="18" height="18" fill="none" xmlns="http://www.w3.org/2000/svg"><path d="M2.636 15.364a9 9 0 0012.728 0 9 9 0 000-12.728A9 9 0 002.636 15.364zm3.992-11.96l1.34 1.338a.846.846 0 01.138 1.013l-.503.893a.562.562 0 00.093.675l2.981 2.981a.563.563 0 00.675.092l.893-.503a.844.844 0 011.013.139l1.34 1.34a.846.846 0 010 1.195l-.635.634a2.257 2.257 0 01-2.725.355l-.061-.034a17.669 17.669 0 01-6.385-6.25l-.304-.509a2.252 2.252 0 01.337-2.752l.608-.608a.844.844 0 011.195 0z" fill="#589574"/></svg>