<svg width="35" height="35" viewBox="0 0 35 35" fill="none" xmlns="http://www.w3.org/2000/svg">
<g clip-path="url(#clip0_1149_43)">
<path d="M17.3502 0.0098877C8.48726 0.0098877 9.04065 3.85337 9.04065 3.85337L9.05049 7.83534H17.5082V9.03084H5.69122C5.69122 9.03084 0.0198364 8.38763 0.0198364 17.3303C0.0198364 26.2731 4.96996 25.956 4.96996 25.956H7.92417V21.8061C7.92417 21.8061 7.76491 16.856 12.7953 16.856H21.1838C21.1838 16.856 25.8968 16.9322 25.8968 12.3011V4.64394C25.8968 4.64394 26.6125 0.0098877 17.3502 0.0098877ZM12.6866 2.68768C12.8865 2.6875 13.0844 2.72674 13.2691 2.80314C13.4538 2.87954 13.6216 2.99161 13.7629 3.13293C13.9042 3.27425 14.0163 3.44206 14.0927 3.62674C14.1691 3.81142 14.2083 4.00936 14.2081 4.20922C14.2083 4.40908 14.1691 4.60702 14.0927 4.7917C14.0163 4.97638 13.9042 5.14419 13.7629 5.28551C13.6216 5.42683 13.4538 5.5389 13.2691 5.6153C13.0844 5.6917 12.8865 5.73094 12.6866 5.73076C12.4867 5.73094 12.2888 5.6917 12.1041 5.6153C11.9194 5.5389 11.7516 5.42683 11.6103 5.28551C11.469 5.14419 11.3569 4.97638 11.2805 4.7917C11.2041 4.60702 11.1649 4.40908 11.1651 4.20922C11.1649 4.00936 11.2041 3.81142 11.2805 3.62674C11.3569 3.44206 11.469 3.27425 11.6103 3.13293C11.7516 2.99161 11.9194 2.87954 12.1041 2.80314C12.2888 2.72674 12.4867 2.6875 12.6866 2.68768Z" fill="url(#paint0_linear_1149_43)"/>
<path d="M17.6018 34.7406C26.4647 34.7406 25.9114 30.8971 25.9114 30.8971L25.9015 26.9153H17.4437V25.7198H29.2607C29.2607 25.7198 34.932 26.363 34.932 17.4201C34.932 8.47732 29.9819 8.79448 29.9819 8.79448H27.0277V12.9442C27.0277 12.9442 27.187 17.8943 22.1566 17.8943H13.7681C13.7681 17.8943 9.05512 17.8182 9.05512 22.4494V30.1067C9.05512 30.1067 8.33946 34.7406 17.6017 34.7406H17.6018ZM22.2654 32.0631C22.0656 32.0632 21.8676 32.024 21.6829 31.9476C21.4983 31.8712 21.3305 31.7591 21.1891 31.6178C21.0478 31.4765 20.9357 31.3087 20.8593 31.124C20.7829 30.9393 20.7437 30.7414 20.7439 30.5415C20.7437 30.3416 20.7829 30.1437 20.8593 29.959C20.9357 29.7743 21.0478 29.6065 21.1891 29.4651C21.3304 29.3238 21.4982 29.2117 21.6829 29.1353C21.8676 29.0589 22.0655 29.0197 22.2654 29.0198C22.4653 29.0197 22.6632 29.0589 22.8479 29.1353C23.0326 29.2117 23.2004 29.3238 23.3417 29.4651C23.483 29.6064 23.5951 29.7742 23.6715 29.9589C23.7479 30.1436 23.7871 30.3415 23.787 30.5414C23.7871 30.7412 23.7479 30.9392 23.6715 31.1239C23.5951 31.3085 23.483 31.4763 23.3417 31.6177C23.2004 31.759 23.0326 31.8711 22.8479 31.9475C22.6632 32.0239 22.4653 32.0632 22.2654 32.0631Z" fill="url(#paint1_linear_1149_43)"/>
</g>
<defs>
<linearGradient id="paint0_linear_1149_43" x1="335.525" y1="312.392" x2="2065.67" y2="2025.28" gradientUnits="userSpaceOnUse">
<stop stop-color="#387EB8"/>
<stop offset="1" stop-color="#366994"/>
</linearGradient>
<linearGradient id="paint1_linear_1149_43" x1="504.261" y1="542.766" x2="2362.24" y2="2299.17" gradientUnits="userSpaceOnUse">
<stop stop-color="#FFE052"/>
<stop offset="1" stop-color="#FFC331"/>
</linearGradient>
<clipPath id="clip0_1149_43">
<rect width="35" height="34.86" fill="white"/>
</clipPath>
</defs>
</svg>
