<svg width="35" height="31" viewBox="0 0 35 31" fill="none" xmlns="http://www.w3.org/2000/svg">
<path d="M29.6046 10.2318C28.9896 10.0112 28.3466 9.79055 27.6757 9.5975C27.8435 8.9356 27.9832 8.2737 28.095 7.63939C28.6821 3.99896 28.0391 1.43411 26.25 0.441264C25.7189 0.137895 25.1318 0 24.4609 0C22.504 0 20.016 1.43411 17.5 3.83348C14.984 1.43411 12.496 0 10.5391 0C9.86821 0 9.28115 0.137895 8.75 0.441264C6.96086 1.46169 6.31789 4.02653 6.90495 7.63939C7.01677 8.2737 7.15655 8.9356 7.32428 9.5975C6.65336 9.79055 6.01038 9.9836 5.39537 10.2318C1.90096 11.5556 0 13.3758 0 15.4167C0 17.4575 1.92891 19.2777 5.39537 20.6015C6.01038 20.8222 6.65336 21.0428 7.32428 21.2358C7.15655 21.8977 7.01677 22.5596 6.90495 23.1939C6.31789 26.8344 6.96086 29.3992 8.75 30.3921C9.28115 30.6954 9.86821 30.8333 10.5391 30.8333C12.524 30.8333 15.012 29.3992 17.5 26.9999C20.016 29.3992 22.504 30.8333 24.4609 30.8333C25.1318 30.8333 25.7189 30.6954 26.25 30.3921C28.0391 29.3716 28.6821 26.8068 28.095 23.1939C27.9832 22.5596 27.8435 21.8977 27.6757 21.2358C28.3466 21.0428 28.9896 20.8497 29.6046 20.6015C33.099 19.2777 35 17.4575 35 15.4167C35 13.3758 33.099 11.5556 29.6046 10.2318ZM25.4673 1.82021C26.6134 2.48211 27.0048 4.52296 26.5296 7.41875C26.4457 7.99791 26.3059 8.60465 26.1382 9.23897C24.6845 8.90802 23.147 8.68739 21.5256 8.54949C20.5751 7.2257 19.5966 6.0398 18.6182 4.96422C20.6869 2.95095 22.7835 1.572 24.4888 1.572C24.8522 1.572 25.1877 1.65474 25.4673 1.82021ZM22.3363 18.1746C21.8331 19.0571 21.246 19.9396 20.631 20.8222C19.5966 20.9049 18.5623 20.9325 17.5 20.9325C16.4097 20.9325 15.3754 20.9049 14.369 20.8222C13.754 19.9396 13.1949 19.0571 12.6917 18.1746C12.1605 17.2645 11.6573 16.3268 11.2101 15.4167C11.6573 14.5066 12.1605 13.5689 12.6917 12.6588C13.1949 11.7762 13.7819 10.8937 14.397 10.0112C15.4313 9.92844 16.4657 9.90086 17.528 9.90086C18.6182 9.90086 19.6526 9.92844 20.6589 10.0112C21.274 10.8937 21.8331 11.7762 22.3363 12.6588C22.8674 13.5689 23.3706 14.5066 23.8179 15.4167C23.3427 16.3268 22.8674 17.2369 22.3363 18.1746ZM24.6565 17.2645C25.0759 18.2297 25.4113 19.1674 25.7189 20.1051C24.7684 20.3257 23.762 20.4912 22.6997 20.6291C23.0351 20.1051 23.3986 19.5535 23.7061 18.9744C24.0415 18.3952 24.349 17.816 24.6565 17.2645ZM17.5 24.7384C16.8291 24.0213 16.1861 23.2491 15.5711 22.4493C16.2141 22.4769 16.857 22.5045 17.5 22.5045C18.143 22.5045 18.7859 22.4769 19.4289 22.4493C18.8139 23.2491 18.1709 24.0213 17.5 24.7384ZM12.3003 20.6015C11.238 20.4636 10.2316 20.2982 9.28115 20.0775C9.58866 19.1674 9.92412 18.2021 10.3435 17.2369C10.651 17.7885 10.9585 18.3676 11.2939 18.9192C11.6294 19.5259 11.9649 20.0499 12.3003 20.6015ZM10.3435 13.5689C9.92412 12.6036 9.58866 11.6659 9.28115 10.7282C10.2316 10.5076 11.238 10.3421 12.3003 10.2042C11.9649 10.7282 11.6014 11.2798 11.2939 11.859C10.9585 12.4381 10.651 13.0173 10.3435 13.5689ZM17.5 6.09496C18.1709 6.81202 18.8139 7.58423 19.4289 8.38402C18.7859 8.35644 18.143 8.32886 17.5 8.32886C16.857 8.32886 16.2141 8.35644 15.5711 8.38402C16.1861 7.58423 16.8291 6.81202 17.5 6.09496ZM23.7061 11.8866L22.6997 10.2318C23.762 10.3697 24.7684 10.5352 25.7189 10.7558C25.4113 11.6659 25.0759 12.6312 24.6565 13.5965C24.349 13.0173 24.0415 12.4381 23.7061 11.8866ZM8.47045 7.41875C7.99521 4.52296 8.38658 2.48211 9.53275 1.82021C9.8123 1.65474 10.1478 1.572 10.5112 1.572C12.1885 1.572 14.2851 2.92337 16.3818 4.96422C15.4034 6.01222 14.4249 7.2257 13.4744 8.54949C11.853 8.68739 10.3155 8.9356 8.86182 9.23897C8.69409 8.60465 8.58227 7.99791 8.47045 7.41875ZM1.5655 15.4167C1.5655 14.1205 3.15895 12.7415 5.95447 11.7211C6.51358 11.5004 7.12859 11.3074 7.74361 11.1419C8.1909 12.5209 8.75 13.9826 9.42093 15.4442C8.75 16.9059 8.16294 18.34 7.74361 19.719C3.88578 18.6158 1.5655 16.9611 1.5655 15.4167ZM9.53275 29.0131C8.38658 28.3512 7.99521 26.3104 8.47045 23.4146C8.55431 22.8354 8.69409 22.2287 8.86182 21.5944C10.3155 21.9253 11.853 22.1459 13.4744 22.2838C14.4249 23.6076 15.4034 24.7935 16.3818 25.8691C14.3131 27.8824 12.2165 29.2613 10.5112 29.2613C10.1478 29.2613 9.8123 29.1786 9.53275 29.0131ZM26.5296 23.4146C27.0048 26.3104 26.6134 28.3512 25.4673 29.0131C25.1877 29.1786 24.8522 29.2613 24.4888 29.2613C22.8115 29.2613 20.7149 27.91 18.6182 25.8691C19.5966 24.8211 20.5751 23.6076 21.5256 22.2838C23.147 22.1459 24.6845 21.8977 26.1382 21.5944C26.3059 22.2287 26.4177 22.8354 26.5296 23.4146ZM29.0455 19.1123C28.4864 19.3329 27.8714 19.5259 27.2564 19.6914C26.8091 18.3125 26.25 16.8508 25.5791 15.3891C26.25 13.9274 26.8371 12.4933 27.2564 11.1143C31.1142 12.2175 33.4345 13.8722 33.4345 15.4167C33.4345 16.7129 31.8131 18.0918 29.0455 19.1123Z" fill="#61DAFB"/>
<path d="M17.5 18C18.8807 18 20 16.8807 20 15.5C20 14.1193 18.8807 13 17.5 13C16.1193 13 15 14.1193 15 15.5C15 16.8807 16.1193 18 17.5 18Z" fill="#61DAFB"/>
</svg>
