<svg width="54" height="54" viewBox="0 0 54 54"  fill="none" xmlns="http://www.w3.org/2000/svg"><circle cx="27" cy="27" r="27" fill="#589574"/><g clip-path="url(#clip0_1143_11)" fill="#fff"><path d="M18.666 30.549l15.507 2.745.65-2.611-15.508-2.765-.649 2.63zm-.343 3.415h15.849v2.659h-15.85v-2.66zm2.377-9.675l14.358 5.657 1.33-2.43-14.365-5.672-1.323 2.445zm14.36 5.659l-.002-.002-.002.002h.004z"/><path d="M12 31.286V42h28.488V31.286h-3.17v8.035H15.17v-8.035H12zm12.68-12.957l12.163 8.591 2.019-2.063-12.164-8.59-2.018 2.062zM42 22.734L32.547 12l-2.536 1.607 9.453 10.734L42 22.734z"/></g><defs><clipPath id="clip0_1143_11"><path fill="#fff" transform="translate(9 12)" d="M0 0h36v30H0z"/></clipPath></defs></svg>